<svg width="231.35px" height="330.8px" xmlns="http://www.w3.org/2000/svg" viewBox="134.325 -90.4 231.35 330.8" style="background: rgba(0, 0, 0, 0);" preserveAspectRatio="xMidYMid"><defs><filter id="editing-extrusion" x="-100%" y="-100%" width="300%" height="300%"><feFlood result="color1" flood-color="#ffd700"></feFlood><feConvolveMatrix order="8,8" divisor="1" kernelMatrix="1 0 0 0 0 0 0 0 0 1 0 0 0 0 0 0 0 0 1 0 0 0 0 0 0 0 0 1 0 0 0 0 0 0 0 0 1 0 0 0 0 0 0 0 0 1 0 0 0 0 0 0 0 0 1 0 0 0 0 0 0 0 0 1" in="SourceAlpha" result="extrude"></feConvolveMatrix><feComposite in="color1" in2="extrude" result="comp-extrude" operator="in"></feComposite><feOffset dx="4" dy="4" in="comp-extrude" result="offset-extrude"></feOffset><feMerge><feMergeNode in="offset-extrude"></feMergeNode><feMergeNode in="SourceGraphic"></feMergeNode></feMerge></filter></defs><g filter="url(#editing-extrusion)"><g transform="translate(172.20001792907715, 138.70000457763672)"><path d="M12.20 0.60L12.20 0.60Q10.40 0.60 9.50-0.70L9.50-0.70L9.50-0.70Q8.60-2 8.60-3.80L8.60-3.80L8.60-3.80Q8.80-6.80 9.80-7.40L9.80-7.40L9.80-7.40Q10.80-8 13.60-8L13.60-8L13.60-8Q19.40-8 22.20-10.10L22.20-10.10L22.20-10.10Q25-12.20 25.70-15.30L25.70-15.30L25.70-15.30Q26.40-18.40 26.60-23.40L26.60-23.40L26.60-102.80L26.60-102.80Q26.40-107.80 25.70-110.90L25.70-110.90L25.70-110.90Q25-114 22.20-116.10L22.20-116.10L22.20-116.10Q19.40-118.20 13.60-118.20L13.60-118.20L12.40-118.20L12.40-118.20Q10.40-118.20 9.60-118.90L9.60-118.90L9.60-118.90Q8.80-119.60 8.60-122.40L8.60-122.40L8.60-122.40Q8.60-124.20 9.50-125.50L9.50-125.50L9.50-125.50Q10.40-126.80 12.20-126.80L12.20-126.80L12.20-126.80Q25.20-126.20 35.80-126.20L35.80-126.20L35.80-126.20Q47.80-126.20 60.80-126.80L60.80-126.80L60.80-126.80Q62.60-126.80 63.50-125.50L63.50-125.50L63.50-125.50Q64.40-124.20 64.40-122.40L64.40-122.40L64.40-122.40Q64.20-119.40 63.20-118.80L63.20-118.80L63.20-118.80Q62.20-118.20 59.40-118.20L59.40-118.20L59.40-118.20Q53.60-118.20 50.80-116.10L50.80-116.10L50.80-116.10Q48-114 47.30-110.90L47.30-110.90L47.30-110.90Q46.60-107.80 46.40-102.80L46.40-102.80L46.40-67.40L109.20-67.40L109.20-102.80L109.20-102.80Q109-107.80 108.30-110.90L108.30-110.90L108.30-110.90Q107.60-114 104.80-116.10L104.80-116.10L104.80-116.10Q102-118.20 96.20-118.20L96.20-118.20L95-118.20L95-118.20Q93-118.20 92.10-118.90L92.10-118.90L92.10-118.90Q91.20-119.60 91-122.40L91-122.40L91-122.40Q91-124.20 92-125.50L92-125.50L92-125.50Q93-126.80 94.60-126.80L94.60-126.80L94.60-126.80Q107.60-126.20 119.60-126.20L119.60-126.20L119.60-126.20Q130.60-126.20 143.40-126.80L143.40-126.80L143.40-126.80Q145.20-126.80 146.10-125.50L146.10-125.50L146.10-125.50Q147-124.20 147-122.40L147-122.40L147-122.40Q146.80-119.40 145.70-118.80L145.70-118.80L145.70-118.80Q144.60-118.20 142-118.20L142-118.20L142-118.20Q136.20-118.20 133.30-116.10L133.30-116.10L133.30-116.10Q130.40-114 129.70-110.90L129.70-110.90L129.70-110.90Q129-107.80 128.80-102.80L128.80-102.80L128.80-23.40L128.80-23.40Q129-18.40 129.70-15.30L129.70-15.30L129.70-15.30Q130.40-12.20 133.30-10.10L133.30-10.10L133.30-10.10Q136.20-8 142-8L142-8L143.20-8L143.20-8Q145-8 145.90-7.30L145.90-7.30L145.90-7.30Q146.80-6.60 147-3.80L147-3.80L147-3.80Q147-2 146.10-0.70L146.10-0.70L146.10-0.70Q145.20 0.60 143.40 0.60L143.40 0.60L143.40 0.60Q130.60 0 119.40 0L119.40 0L119.40 0Q107.60 0 94.60 0.60L94.60 0.60L94.60 0.60Q93 0.60 92-0.70L92-0.70L92-0.70Q91-2 91-3.80L91-3.80L91-3.80Q91.20-6.80 92.30-7.40L92.30-7.40L92.30-7.40Q93.40-8 96.20-8L96.20-8L96.20-8Q102-8 104.80-10.10L104.80-10.10L104.80-10.10Q107.60-12.20 108.30-15.30L108.30-15.30L108.30-15.30Q109-18.40 109.20-23.40L109.20-23.40L109.20-58.80L46.40-58.80L46.40-23.40L46.40-23.40Q46.60-18.40 47.30-15.30L47.30-15.30L47.30-15.30Q48-12.20 50.80-10.10L50.80-10.10L50.80-10.10Q53.60-8 59.40-8L59.40-8L60.60-8L60.60-8Q62.60-8 63.40-7.30L63.40-7.30L63.40-7.30Q64.20-6.60 64.40-3.80L64.40-3.80L64.40-3.80Q64.40-2 63.50-0.70L63.50-0.70L63.50-0.70Q62.60 0.60 60.80 0.60L60.80 0.60L60.80 0.60Q48 0 36 0L36 0L36 0Q25.20 0 12.20 0.60L12.20 0.60Z" fill="#fafafa"></path></g></g><style>text {
  font-size: 64px;
  font-family: Arial Black;
  dominant-baseline: central;
  text-anchor: middle;
}</style></svg>